<?xml version="1.0" standalone="no"?>
<!DOCTYPE svg PUBLIC "-//W3C//DTD SVG 20010904//EN"
 "http://www.w3.org/TR/2001/REC-SVG-20010904/DTD/svg10.dtd">
<svg version="1.0" xmlns="http://www.w3.org/2000/svg"
 width="400.000000pt" height="400.000000pt" viewBox="0 0 400.000000 400.000000"
 preserveAspectRatio="xMidYMid meet">
<metadata>
Created by potrace 1.11, written by Peter Selinger 2001-2013
</metadata>
<g transform="translate(0.000000,400.000000) scale(0.100000,-0.100000)"
fill="#000000" stroke="none">
<path d="M264 2002 l1 -1427 1725 0 c949 -1 1731 1 1738 3 9 3 12 298 12 1428
l0 1424 -1739 -1 -1739 0 2 -1427z m3292 1245 c8 -7 13 -2461 6 -2485 -6 -18
-3121 -18 -3123 1 -6 56 -4 2465 2 2477 6 13 189 15 1557 15 853 0 1554 -4
1558 -8z"/>
<path d="M2175 2934 c-20 -6 -45 -20 -56 -30 -24 -22 -4 48 -324 -1134 -13
-47 -32 -119 -44 -160 -100 -370 -109 -410 -99 -448 13 -48 43 -80 87 -92 60
-16 121 6 150 54 15 24 82 251 106 356 2 8 14 49 25 90 12 41 23 82 26 90 2 8
15 58 29 110 14 52 27 102 29 110 2 8 9 33 15 55 6 22 10 42 10 45 0 3 4 17
10 33 6 15 13 38 15 50 3 12 23 87 45 167 163 595 162 589 136 640 -30 59 -97
86 -160 64z"/>
<path d="M1377 2764 c-23 -12 -551 -424 -683 -533 -17 -14 -46 -37 -64 -51
-18 -14 -55 -46 -83 -71 -49 -45 -51 -49 -54 -103 -2 -53 1 -59 36 -94 20 -20
86 -76 146 -123 61 -47 229 -180 375 -295 360 -285 330 -264 379 -264 102 0
163 86 126 177 -13 34 -49 67 -208 192 -106 84 -200 159 -210 167 -10 8 -81
65 -158 126 -77 61 -139 111 -137 113 2 1 44 35 93 74 50 39 97 77 105 84 8 6
117 92 241 189 124 98 236 189 248 202 32 34 40 108 17 150 -34 63 -112 90
-169 60z"/>
<path d="M2509 2761 c-18 -9 -41 -27 -51 -41 -21 -29 -30 -93 -18 -124 15 -40
4 -31 478 -405 127 -101 232 -186 232 -190 0 -4 -19 -21 -42 -38 -24 -17 -56
-43 -73 -56 -16 -14 -111 -89 -210 -167 -348 -275 -374 -297 -386 -326 -34
-91 27 -184 121 -184 55 0 52 -2 325 214 105 83 210 167 235 186 25 19 54 43
65 52 11 9 79 63 150 120 151 119 162 131 170 178 12 68 -14 105 -145 205 -57
44 -290 228 -595 471 -55 43 -113 87 -129 97 -39 25 -89 28 -127 8z"/>
</g>
</svg>
